<?xml version="1.0" encoding="UTF-8" standalone="no"?>
<svg width="408" xmlns="http://www.w3.org/2000/svg" height="595">
 <g id="layer1" externalResourcesRequired="false">
  <g id="g8723" stroke-linejoin="round" stroke-dashoffset="3.003" stroke="#000" stroke-linecap="round" externalResourcesRequired="false">
   <path id="path8553" stroke-width="2" fill="#3f3f3f" d="m12.325 19.366c-9.0839 0.88391-10.98 7.5287-11.076 11.699-1.2834 55.704 2.8412 120.8 2.1529 178.21 0.071396 5.4604 3.1039 14.95 14.091 14.481l123-0.5986c9.2334 0.33081 12.305-3.6116 11.866-15.442l0.8282-170.67c-0.032684-6.6257-1.7705-14.773-11.479-14.621l-129.38-3.0587z"/>
   <path id="path8555" fill="#fff" d="m13.923 31.145l1.3317 176.41 121.72-1.1676 1.7413-174.62-124.79-0.6254z"/>
   <path id="path8557" fill="#bfbfbf" d="m80.259 0.5c-7.529 0-13.652 5.2908-13.652 11.79 0 0.36292 0.046814 0.69818 0.084015 1.0527l-16.676 0.0842c-7.133 4.58-11.464 15.594-8.527 24.211l75.945-0.4632c2.0583-5.6875 1.4623-16.385-8.275-24.043l-15.332 0.0842c0.0289-0.3128 0.041901-0.60706 0.041901-0.92633 0-6.499-6.0806-11.79-13.61-11.79h0.000122z"/>
   <g fill="#fff">
    <path id="path8559" d="m26.113 58.265l0.2595 18.025 16.695-0.4809 0.5869-17.614-17.542 0.0704z"/>
    <path id="path8561" d="m50.632 67.737h70.651"/>
    <path id="path8563" d="m26.621 85.1l0.2524 17.529 16.238-0.4677 0.5708-17.13-17.061 0.0685z"/>
    <path id="path8565" d="m50.632 92.006h70.651"/>
    <path id="path8569" d="m49.616 120.25h70.651"/>
    <path id="path8571" d="m26.341 138.55l0.2633 18.279 16.939-0.4877 0.5955-17.863-17.798 0.0713z"/>
    <path id="path8573" d="m50.331 146.89h67.646"/>
    <path id="path8575" d="m26.638 164.73l0.2697 18.726 17.354-0.4996 0.61-18.299-18.234 0.0731z"/>
    <path id="path8577" d="m49.707 173.1h70.651"/>
    <path id="path8606" stroke-width="6.019" d="m84.047 11.113c0 2.2075-2.2398 3.9971-5.0027 3.9971s-5.0027-1.7896-5.0027-3.9971 2.2398-3.997 5.0027-3.997 5.0027 1.7896 5.0027 3.997z"/>
   </g>
   <path id="path8625" fill="#549910" d="m28.625 66.282l2.3447-2.1257 2.2425 4.4416c4.6551-5.1805 6.1502-8.1925 9.4544-11.363l3.523 3.1846c-3.6186 2.511-7.2942 7.3165-13.236 13.032l-4.3287-7.1692z"/>
   <g fill="#fff">
    <path id="path8637" d="m40.83 29.487l77.58-0.3591"/>
    <path id="path8567" d="m26.661 112.41l0.2516 17.472 16.188-0.4662 0.569-17.074-17.009 0.0682z"/>
   </g>
   <g fill="#549910">
    <path id="path8719" d="m29.895 91.933l2.3447-2.1257 2.2425 4.4416c4.6551-5.1805 6.1502-8.1925 9.4544-11.363l3.523 3.1846c-3.6186 2.511-7.2941 7.3165-13.236 13.032l-4.3287-7.1692z"/>
    <path id="path8721" d="m29.895 118.6l2.3447-2.1257 2.2425 4.4416c4.6551-5.1805 6.1502-8.1925 9.4544-11.363l3.523 3.1846c-3.6186 2.511-7.2941 7.3165-13.236 13.032l-4.3287-7.1692z"/>
   </g>
  </g>
 </g>
</svg>
